<?xml version="1.0" encoding="UTF-8" standalone="no"?><!DOCTYPE svg PUBLIC "-//W3C//DTD SVG 1.1//EN" "http://www.w3.org/Graphics/SVG/1.1/DTD/svg11.dtd"><svg width="100%" height="100%" viewBox="0 0 2481 709" version="1.1" xmlns="http://www.w3.org/2000/svg" xmlns:xlink="http://www.w3.org/1999/xlink" xml:space="preserve" xmlns:serif="http://www.serif.com/" style="fill-rule:evenodd;clip-rule:evenodd;stroke-linejoin:round;stroke-miterlimit:2;"><g><path d="M177.683,250.189c10.293,78.668 20.586,156.601 20.586,236.004c0,27.938 0.735,55.876 2.206,84.55c1.47,24.262 5.146,39.702 25.732,51.465c14.704,8.087 41.907,7.352 49.259,-13.234c2.206,-5.882 2.941,-13.969 2.941,-22.056c0,-13.969 -2.206,-30.144 -1.47,-40.437c1.47,-25.732 -2.206,-50.73 -5.146,-74.992c-2.206,-20.586 -0.735,-38.966 -2.206,-59.552c-2.206,-22.792 -0.735,-28.673 19.116,-38.966c20.586,-11.028 22.792,7.352 30.144,24.262c8.087,19.851 19.851,42.642 27.938,62.493c9.558,24.997 24.997,44.848 38.231,63.228c9.558,13.234 19.851,33.085 38.231,34.555c11.763,0 31.614,-5.146 36.761,-19.851c5.146,-17.645 -13.969,-44.848 -22.056,-58.082c-25.732,-37.496 -41.172,-68.375 -54.406,-111.017c-2.941,-8.087 -18.38,-41.907 -15.439,-49.259c2.206,-7.352 16.91,-16.91 22.792,-21.321c14.704,-12.499 80.138,-58.817 85.285,-79.403c5.146,-16.91 -5.882,-38.231 -22.792,-45.583c-19.851,-8.823 -38.231,7.352 -54.406,17.645c-23.527,15.439 -81.609,61.758 -105.136,77.933c-6.617,4.411 -16.91,13.969 -24.997,13.969c-10.293,0 -11.028,-8.823 -13.234,-18.38c-8.823,-37.496 -6.617,-78.668 -15.439,-116.164c-3.676,-13.969 -13.969,-19.116 -25.732,-19.116c-6.617,0 -13.969,1.47 -21.321,4.411c-18.38,6.617 -23.527,26.468 -23.527,49.259c0,24.262 5.882,52.2 8.087,67.64Z" style="fill:#ec8263;fill-rule:nonzero;stroke:#000;stroke-width:8.33px;"/><path d="M793.793,406.789c-19.851,-11.763 -30.879,-17.645 -42.642,-29.409c-1.47,-8.087 -3.676,-16.91 -5.882,-24.997c-9.558,-38.231 -22.056,-74.992 -27.938,-113.958c-2.941,-25.732 -9.558,-56.611 -23.527,-77.933c-9.558,-13.969 -22.792,-26.468 -39.702,-27.938c-55.876,-4.411 -88.226,52.935 -110.282,94.843c-16.91,32.349 -24.997,66.904 -36.025,100.724c-13.234,39.702 -27.203,79.403 -34.555,121.31c-2.941,19.116 -7.352,40.437 -7.352,61.023c0,14.704 2.206,29.409 8.823,42.642c5.882,11.028 27.938,19.851 38.231,19.116c36.761,-4.411 8.087,-70.581 33.085,-86.755c15.439,-10.293 34.555,-6.617 52.2,-9.558c25.732,-2.941 49.259,-5.146 74.992,-3.676c22.056,0.735 24.997,10.293 28.673,29.409c3.676,16.91 5.882,33.82 9.558,49.995c5.146,18.38 10.293,30.144 32.349,25.732c13.969,-2.941 22.056,-19.851 27.938,-33.085c10.293,-23.527 -8.823,-49.995 0,-67.64c4.411,-5.146 16.91,-7.352 22.792,-8.823c16.175,-4.411 31.614,-8.087 30.144,-27.938c-1.47,-16.91 -17.645,-25.732 -30.879,-33.085Zm-121.31,-13.969c-8.823,4.411 -20.586,1.47 -30.144,2.206c-8.823,0.735 -16.91,3.676 -25.732,3.676c-13.969,-0.735 -33.82,0.735 -44.848,-8.823c-5.882,-4.411 -8.087,-11.763 -8.087,-20.586c0,-23.527 16.91,-57.347 23.527,-72.786c8.087,-20.586 17.645,-41.907 34.555,-56.611c16.91,-14.704 24.262,1.47 30.144,16.91c6.617,19.851 10.293,41.172 15.439,62.493c2.941,12.499 7.352,24.997 8.823,38.231c1.47,11.763 8.087,30.144 -3.676,35.29Z" style="fill:#ec8263;fill-rule:nonzero;stroke:#000;stroke-width:8.33px;"/><path d="M838.641,286.214c6.617,23.527 11.028,47.054 15.439,70.581c5.882,31.614 12.499,63.228 22.056,94.107c4.411,14.704 10.293,29.409 19.851,40.437c12.499,13.234 27.203,12.499 43.378,11.028c12.499,-1.47 22.056,-3.676 30.879,-13.234c14.704,-17.645 27.938,-36.025 42.642,-53.671c16.91,-20.586 33.085,-41.907 46.318,-65.434c4.411,-8.823 9.558,-16.91 14.704,-25.732c4.411,-6.617 9.558,-19.851 18.38,-22.792c6.617,-2.206 16.175,4.411 22.056,8.087c7.352,5.882 13.234,13.234 19.116,20.586c7.352,9.558 17.645,17.645 25.732,26.468c16.175,17.645 37.496,29.409 53.671,46.318c8.087,8.823 16.175,17.645 25.732,26.468c25.732,24.262 49.995,-21.321 61.758,-39.702c5.882,-10.293 8.087,-23.527 11.763,-34.555c4.411,-15.439 6.617,-31.614 11.028,-47.054c8.823,-30.144 16.175,-61.023 23.527,-91.902c4.411,-20.586 8.087,-41.172 11.763,-61.023c1.47,-10.293 8.087,-23.527 2.206,-33.085c-6.617,-9.558 -24.262,-15.439 -35.29,-16.91c-15.439,-2.206 -23.527,-0.735 -29.409,14.704c-5.882,15.439 -7.352,32.349 -11.028,48.524c-5.146,19.116 -7.352,38.231 -11.763,58.082c-3.676,15.439 -6.617,30.879 -11.763,45.583c-3.676,12.499 -8.087,28.673 -16.175,38.231c-8.823,11.763 -22.056,1.47 -30.144,-5.882c-7.352,-6.617 -12.499,-15.439 -18.38,-22.792c-6.617,-7.352 -13.234,-13.969 -19.851,-21.321c-13.234,-13.969 -28.673,-26.468 -41.172,-41.172c-8.087,-9.558 -13.234,-20.586 -22.056,-28.673c-9.558,-9.558 -19.116,-8.823 -30.879,-5.882c-8.087,2.206 -15.439,5.146 -23.527,8.087c-4.411,2.206 -14.704,5.146 -18.38,9.558c-5.882,6.617 -6.617,23.527 -8.087,32.349c-1.47,12.499 -7.352,26.468 -13.969,37.496c-15.439,30.879 -33.085,58.817 -55.141,86.02c-5.882,7.352 -14.704,26.468 -24.997,16.175c-9.558,-10.293 -11.763,-27.203 -15.439,-39.702c-11.028,-39.702 -22.056,-80.138 -27.203,-121.31c-1.47,-13.234 -2.206,-22.056 -13.234,-30.144c-11.763,-9.558 -22.792,-11.763 -35.29,-5.882c-12.499,5.882 -22.792,7.352 -24.997,21.321c-3.676,24.262 9.558,45.583 16.175,67.64Z" style="fill:#ec8263;fill-rule:nonzero;stroke:#000;stroke-width:8.33px;"/><path d="M1690.018,298.713c-5.882,-13.234 -15.439,-21.321 -24.997,-31.614c-7.352,-9.558 -11.763,-21.321 -19.851,-30.144c-33.82,-38.231 -93.372,-43.378 -141.161,-41.907c-30.144,1.47 -61.023,7.352 -86.755,24.262c-32.349,21.321 -61.758,61.758 -49.995,100.724c16.91,58.082 42.642,121.31 98.519,152.925c20.586,11.763 50.73,15.439 77.933,15.439c9.558,0 18.38,-0.735 26.468,-1.47c32.349,-2.941 61.023,-10.293 81.609,-37.496c22.792,-30.879 45.583,-72.786 45.583,-113.223c0,-12.499 -2.206,-24.997 -7.352,-37.496Zm-124.251,114.693c-59.552,14.704 -129.398,-46.318 -119.105,-108.812c5.146,-30.879 32.349,-41.172 60.288,-41.172c12.499,0 24.997,2.206 36.025,5.146c19.116,5.146 38.231,13.234 49.259,29.409c9.558,13.234 27.938,44.848 27.203,61.758c-2.206,27.203 -28.673,47.054 -53.671,53.671Z" style="fill:#ec8263;fill-rule:nonzero;stroke:#000;stroke-width:8.33px;"/><path d="M1722.368,286.214c6.617,23.527 11.028,47.054 15.439,70.581c5.882,31.614 12.499,63.228 22.056,94.107c4.411,14.704 10.293,29.409 19.851,40.437c12.499,13.234 27.203,12.499 43.378,11.028c12.499,-1.47 22.056,-3.676 30.879,-13.234c14.704,-17.645 27.938,-36.025 42.642,-53.671c16.91,-20.586 33.085,-41.907 46.318,-65.434c4.411,-8.823 9.558,-16.91 14.704,-25.732c4.411,-6.617 9.558,-19.851 18.38,-22.792c6.617,-2.206 16.175,4.411 22.056,8.087c7.352,5.882 13.234,13.234 19.116,20.586c7.352,9.558 17.645,17.645 25.732,26.468c16.175,17.645 37.496,29.409 53.671,46.318c8.087,8.823 16.175,17.645 25.732,26.468c25.732,24.262 49.995,-21.321 61.758,-39.702c5.882,-10.293 8.087,-23.527 11.763,-34.555c4.411,-15.439 6.617,-31.614 11.028,-47.054c8.823,-30.144 16.175,-61.023 23.527,-91.902c4.411,-20.586 8.087,-41.172 11.763,-61.023c1.47,-10.293 8.087,-23.527 2.206,-33.085c-6.617,-9.558 -24.262,-15.439 -35.29,-16.91c-15.439,-2.206 -23.527,-0.735 -29.409,14.704c-5.882,15.439 -7.352,32.349 -11.028,48.524c-5.146,19.116 -7.352,38.231 -11.763,58.082c-3.676,15.439 -6.617,30.879 -11.763,45.583c-3.676,12.499 -8.087,28.673 -16.175,38.231c-8.823,11.763 -22.056,1.47 -30.144,-5.882c-7.352,-6.617 -12.499,-15.439 -18.38,-22.792c-6.617,-7.352 -13.234,-13.969 -19.851,-21.321c-13.234,-13.969 -28.673,-26.468 -41.172,-41.172c-8.087,-9.558 -13.234,-20.586 -22.056,-28.673c-9.558,-9.558 -19.116,-8.823 -30.879,-5.882c-8.087,2.206 -15.439,5.146 -23.527,8.087c-4.411,2.206 -14.704,5.146 -18.38,9.558c-5.882,6.617 -6.617,23.527 -8.087,32.349c-1.47,12.499 -7.352,26.468 -13.969,37.496c-15.439,30.879 -33.085,58.817 -55.141,86.02c-5.882,7.352 -14.704,26.468 -24.997,16.175c-9.558,-10.293 -11.763,-27.203 -15.439,-39.702c-11.028,-39.702 -22.056,-80.138 -27.203,-121.31c-1.47,-13.234 -2.206,-22.056 -13.234,-30.144c-11.763,-9.558 -22.792,-11.763 -35.29,-5.882c-12.499,5.882 -22.792,7.352 -24.997,21.321c-3.676,24.262 9.558,45.583 16.175,67.64Z" style="fill:#ec8263;fill-rule:nonzero;stroke:#000;stroke-width:8.33px;"/><path d="M2343.624,544.274c11.028,25.732 -21.321,47.054 -51.465,47.054c-7.352,0 -13.969,-0.735 -20.586,-3.676c-11.028,-4.411 -23.527,-24.997 -22.792,-35.29c0.735,-21.321 22.792,-32.349 46.318,-32.349c20.586,0 41.907,8.087 48.524,24.262Zm49.259,-415.396c-6.617,-17.645 -24.997,-37.496 -43.378,-40.437c-19.116,-3.676 -30.144,15.439 -37.496,29.409c-4.411,9.558 -10.293,18.38 -13.969,27.938c-3.676,12.499 -2.206,24.262 -2.206,36.761c1.47,20.586 -19.851,126.457 -20.586,147.043c-0.735,19.851 -3.676,45.583 -12.499,63.228c-3.676,8.087 -5.882,14.704 -5.882,20.586c0,8.823 4.411,14.704 15.439,22.056c5.882,3.676 13.969,6.617 21.321,6.617c8.823,0 18.38,-3.676 22.056,-12.499c7.352,-16.91 8.087,-36.025 13.234,-53.671c11.028,-32.349 43.378,-150.719 53.671,-183.803c5.882,-18.38 16.91,-44.113 10.293,-63.228Z" style="fill:#ec8263;fill-rule:nonzero;stroke:#000;stroke-width:8.33px;"/></g><g><path d="M154.35,232.189c10.293,78.668 20.586,156.601 20.586,236.004c0,27.938 0.735,55.876 2.206,84.55c1.47,24.262 5.146,39.702 25.732,51.465c14.704,8.087 41.907,7.352 49.259,-13.234c2.206,-5.882 2.941,-13.969 2.941,-22.056c0,-13.969 -2.206,-30.144 -1.47,-40.437c1.47,-25.732 -2.206,-50.73 -5.146,-74.992c-2.206,-20.586 -0.735,-38.966 -2.206,-59.552c-2.206,-22.792 -0.735,-28.673 19.116,-38.966c20.586,-11.028 22.792,7.352 30.144,24.262c8.087,19.851 19.851,42.642 27.938,62.493c9.558,24.997 24.997,44.848 38.231,63.228c9.558,13.234 19.851,33.085 38.231,34.555c11.763,0 31.614,-5.146 36.761,-19.851c5.146,-17.645 -13.969,-44.848 -22.056,-58.082c-25.732,-37.496 -41.172,-68.375 -54.406,-111.017c-2.941,-8.087 -18.38,-41.907 -15.439,-49.259c2.206,-7.352 16.91,-16.91 22.792,-21.321c14.704,-12.499 80.138,-58.817 85.285,-79.403c5.146,-16.91 -5.882,-38.231 -22.792,-45.583c-19.851,-8.823 -38.231,7.352 -54.406,17.645c-17.752,11.65 -55.177,40.88 -82.587,61.476c-8.917,6.7 -16.773,12.486 -22.548,16.457c-6.617,4.411 -16.91,13.969 -24.997,13.969c-10.293,0 -11.028,-8.823 -13.234,-18.38c-8.823,-37.496 -6.617,-78.668 -15.439,-116.164c-3.676,-13.969 -13.969,-19.116 -25.732,-19.116c-6.617,0 -13.969,1.47 -21.321,4.411c-18.38,6.617 -23.527,26.468 -23.527,49.259c0,24.262 5.882,52.2 8.087,67.64Z" style="fill:#f9e26c;fill-rule:nonzero;stroke:#000;stroke-width:8.33px;"/><path d="M770.459,388.789c-19.851,-11.763 -30.879,-17.645 -42.642,-29.409c-1.47,-8.087 -3.676,-16.91 -5.882,-24.997c-9.558,-38.231 -22.056,-74.992 -27.938,-113.958c-2.941,-25.732 -9.558,-56.611 -23.527,-77.933c-9.558,-13.969 -22.792,-26.468 -39.702,-27.938c-55.876,-4.411 -88.226,52.935 -110.282,94.843c-16.91,32.349 -24.997,66.904 -36.025,100.724c-13.234,39.702 -27.203,79.403 -34.555,121.31c-2.941,19.116 -7.352,40.437 -7.352,61.023c0,14.704 2.206,29.409 8.823,42.642c5.882,11.028 27.938,19.851 38.231,19.116c36.761,-4.411 8.087,-70.581 33.085,-86.755c15.439,-10.293 34.555,-6.617 52.2,-9.558c25.732,-2.941 49.259,-5.146 74.992,-3.676c22.056,0.735 24.997,10.293 28.673,29.409c3.676,16.91 5.882,33.82 9.558,49.995c5.146,18.38 10.293,30.144 32.349,25.732c13.969,-2.941 22.056,-19.851 27.938,-33.085c10.293,-23.527 -8.823,-49.995 0,-67.64c4.411,-5.146 16.91,-7.352 22.792,-8.823c16.175,-4.411 31.614,-8.087 30.144,-27.938c-1.47,-16.91 -17.645,-25.732 -30.879,-33.085Zm-121.31,-13.969c-8.823,4.411 -20.586,1.47 -30.144,2.206c-8.823,0.735 -16.91,3.676 -25.732,3.676c-13.969,-0.735 -33.82,0.735 -44.848,-8.823c-5.882,-4.411 -8.087,-11.763 -8.087,-20.586c0,-23.527 16.91,-57.347 23.527,-72.786c8.087,-20.586 17.645,-41.907 34.555,-56.611c16.91,-14.704 24.262,1.47 30.144,16.91c6.617,19.851 10.293,41.172 15.439,62.493c2.941,12.499 7.352,24.997 8.823,38.231c1.47,11.763 8.087,30.144 -3.676,35.29Z" style="fill:#f9e26c;fill-rule:nonzero;stroke:#000;stroke-width:8.33px;"/><path d="M815.307,268.214c6.617,23.527 11.028,47.054 15.439,70.581c5.882,31.614 12.499,63.228 22.056,94.107c4.411,14.704 10.293,29.409 19.851,40.437c12.499,13.234 27.203,12.499 43.378,11.028c12.499,-1.47 22.056,-3.676 30.879,-13.234c14.704,-17.645 27.938,-36.025 42.642,-53.671c16.91,-20.586 33.085,-41.907 46.318,-65.434c4.411,-8.823 9.558,-16.91 14.704,-25.732c4.411,-6.617 9.558,-19.851 18.38,-22.792c6.617,-2.206 16.175,4.411 22.056,8.087c7.352,5.882 13.234,13.234 19.116,20.586c7.352,9.558 17.645,17.645 25.732,26.468c16.175,17.645 37.496,29.409 53.671,46.318c8.087,8.823 16.175,17.645 25.732,26.468c25.732,24.262 49.995,-21.321 61.758,-39.702c5.882,-10.293 8.087,-23.527 11.763,-34.555c4.411,-15.439 6.617,-31.614 11.028,-47.054c8.823,-30.144 16.175,-61.023 23.527,-91.902c4.411,-20.586 8.087,-41.172 11.763,-61.023c1.47,-10.293 8.087,-23.527 2.206,-33.085c-6.617,-9.558 -24.262,-15.439 -35.29,-16.91c-15.439,-2.206 -23.527,-0.735 -29.409,14.704c-5.882,15.439 -7.352,32.349 -11.028,48.524c-5.146,19.116 -7.352,38.231 -11.763,58.082c-3.676,15.439 -6.617,30.879 -11.763,45.583c-3.676,12.499 -8.087,28.673 -16.175,38.231c-8.823,11.763 -22.056,1.47 -30.144,-5.882c-7.352,-6.617 -12.499,-15.439 -18.38,-22.792c-6.617,-7.352 -13.234,-13.969 -19.851,-21.321c-13.234,-13.969 -28.673,-26.468 -41.172,-41.172c-8.087,-9.558 -13.234,-20.586 -22.056,-28.673c-9.558,-9.558 -19.116,-8.823 -30.879,-5.882c-8.087,2.206 -15.439,5.146 -23.527,8.087c-4.411,2.206 -14.704,5.146 -18.38,9.558c-5.882,6.617 -6.617,23.527 -8.087,32.349c-1.47,12.499 -7.352,26.468 -13.969,37.496c-15.439,30.879 -33.085,58.817 -55.141,86.02c-5.882,7.352 -14.704,26.468 -24.997,16.175c-9.558,-10.293 -11.763,-27.203 -15.439,-39.702c-11.028,-39.702 -22.056,-80.138 -27.203,-121.31c-1.47,-13.234 -2.206,-22.056 -13.234,-30.144c-11.763,-9.558 -22.792,-11.763 -35.29,-5.882c-12.499,5.882 -22.792,7.352 -24.997,21.321c-3.676,24.262 9.558,45.583 16.175,67.64Z" style="fill:#f9e26c;fill-rule:nonzero;stroke:#000;stroke-width:8.33px;"/><path d="M1666.685,280.713c-5.882,-13.234 -15.439,-21.321 -24.997,-31.614c-7.352,-9.558 -11.763,-21.321 -19.851,-30.144c-33.82,-38.231 -93.372,-43.378 -141.161,-41.907c-30.144,1.47 -61.023,7.352 -86.755,24.262c-32.349,21.321 -61.758,61.758 -49.995,100.724c16.91,58.082 42.642,121.31 98.519,152.925c20.586,11.763 50.73,15.439 77.933,15.439c9.558,0 18.38,-0.735 26.468,-1.47c32.349,-2.941 61.023,-10.293 81.609,-37.496c22.792,-30.879 45.583,-72.786 45.583,-113.223c0,-12.499 -2.206,-24.997 -7.352,-37.496Zm-124.251,114.693c-59.552,14.704 -129.398,-46.318 -119.105,-108.812c5.146,-30.879 32.349,-41.172 60.288,-41.172c12.499,0 24.997,2.206 36.025,5.146c19.116,5.146 38.231,13.234 49.259,29.409c9.558,13.234 27.938,44.848 27.203,61.758c-2.206,27.203 -28.673,47.054 -53.671,53.671Z" style="fill:#f9e26c;fill-rule:nonzero;stroke:#000;stroke-width:8.33px;"/><path d="M1699.034,268.214c6.617,23.527 11.028,47.054 15.439,70.581c5.882,31.614 12.499,63.228 22.056,94.107c4.411,14.704 10.293,29.409 19.851,40.437c12.499,13.234 27.203,12.499 43.378,11.028c12.499,-1.47 22.056,-3.676 30.879,-13.234c14.704,-17.645 27.938,-36.025 42.642,-53.671c16.91,-20.586 33.085,-41.907 46.318,-65.434c4.411,-8.823 9.558,-16.91 14.704,-25.732c4.411,-6.617 9.558,-19.851 18.38,-22.792c6.617,-2.206 16.175,4.411 22.056,8.087c7.352,5.882 13.234,13.234 19.116,20.586c7.352,9.558 17.645,17.645 25.732,26.468c16.175,17.645 37.496,29.409 53.671,46.318c8.087,8.823 16.175,17.645 25.732,26.468c25.732,24.262 49.995,-21.321 61.758,-39.702c5.882,-10.293 8.087,-23.527 11.763,-34.555c4.411,-15.439 6.617,-31.614 11.028,-47.054c8.823,-30.144 16.175,-61.023 23.527,-91.902c4.411,-20.586 8.087,-41.172 11.763,-61.023c1.47,-10.293 8.087,-23.527 2.206,-33.085c-6.617,-9.558 -24.262,-15.439 -35.29,-16.91c-15.439,-2.206 -23.527,-0.735 -29.409,14.704c-5.882,15.439 -7.352,32.349 -11.028,48.524c-5.146,19.116 -7.352,38.231 -11.763,58.082c-3.676,15.439 -6.617,30.879 -11.763,45.583c-3.676,12.499 -8.087,28.673 -16.175,38.231c-8.823,11.763 -22.056,1.47 -30.144,-5.882c-7.352,-6.617 -12.499,-15.439 -18.38,-22.792c-6.617,-7.352 -13.234,-13.969 -19.851,-21.321c-13.234,-13.969 -28.673,-26.468 -41.172,-41.172c-8.087,-9.558 -13.234,-20.586 -22.056,-28.673c-9.558,-9.558 -19.116,-8.823 -30.879,-5.882c-8.087,2.206 -15.439,5.146 -23.527,8.087c-4.411,2.206 -14.704,5.146 -18.38,9.558c-5.882,6.617 -6.617,23.527 -8.087,32.349c-1.47,12.499 -7.352,26.468 -13.969,37.496c-15.439,30.879 -33.085,58.817 -55.141,86.02c-5.882,7.352 -14.704,26.468 -24.997,16.175c-9.558,-10.293 -11.763,-27.203 -15.439,-39.702c-11.028,-39.702 -22.056,-80.138 -27.203,-121.31c-1.47,-13.234 -2.206,-22.056 -13.234,-30.144c-11.763,-9.558 -22.792,-11.763 -35.29,-5.882c-12.499,5.882 -22.792,7.352 -24.997,21.321c-3.676,24.262 9.558,45.583 16.175,67.64Z" style="fill:#f9e26c;fill-rule:nonzero;stroke:#000;stroke-width:8.33px;"/><path d="M2320.29,526.274c11.028,25.732 -21.321,47.054 -51.465,47.054c-7.352,0 -13.969,-0.735 -20.586,-3.676c-11.028,-4.411 -23.527,-24.997 -22.792,-35.29c0.735,-21.321 22.792,-32.349 46.318,-32.349c20.586,0 41.907,8.087 48.524,24.262Zm49.259,-415.396c-6.617,-17.645 -24.997,-37.496 -43.378,-40.437c-19.116,-3.676 -30.144,15.439 -37.496,29.409c-4.411,9.558 -10.293,18.38 -13.969,27.938c-3.676,12.499 -2.206,24.262 -2.206,36.761c1.47,20.586 -19.851,126.457 -20.586,147.043c-0.735,19.851 -3.676,45.583 -12.499,63.228c-3.676,8.087 -5.882,14.704 -5.882,20.586c0,8.823 4.411,14.704 15.439,22.056c5.882,3.676 13.969,6.617 21.321,6.617c8.823,0 18.38,-3.676 22.056,-12.499c7.352,-16.91 8.087,-36.025 13.234,-53.671c11.028,-32.349 43.378,-150.719 53.671,-183.803c5.882,-18.38 16.91,-44.113 10.293,-63.228Z" style="fill:#f9e26c;fill-rule:nonzero;stroke:#000;stroke-width:8.33px;"/></g></svg>